<?xml version="1.0" standalone="no"?>
<!DOCTYPE svg PUBLIC "-//W3C//DTD SVG 20010904//EN"
 "http://www.w3.org/TR/2001/REC-SVG-20010904/DTD/svg10.dtd">
<svg version="1.0" xmlns="http://www.w3.org/2000/svg"
 width="400.000000pt" height="603.000000pt" viewBox="0 0 500.000000 603.000000"
 preserveAspectRatio="xMidYMid meet">

<g transform="translate(0.000000,603.000000) scale(0.100000,-0.100000)"
fill="#000000" stroke="none">
<path d="M610 6024 c-73 -12 -164 -41 -235 -77 -116 -59 -235 -181 -292 -297
-80 -164 -73 70 -73 -2635 0 -2705 -7 -2471 73 -2635 33 -68 59 -102 127 -170
92 -92 176 -144 298 -183 l67 -22 1700 -3 c1122 -2 1726 1 1778 7 123 17 275
88 368 173 53 50 122 144 155 212 71 152 68 111 72 838 2 362 0 658 -5 658 -4
0 -21 -12 -38 -28 -16 -15 -61 -54 -100 -87 -38 -33 -72 -62 -75 -65 -6 -6
-193 -167 -227 -196 l-23 -18 0 -420 c0 -302 -3 -430 -12 -460 -14 -44 -68
-104 -120 -133 -31 -17 -113 -18 -1718 -18 -1551 0 -1688 1 -1720 17 -51 24
-99 73 -121 125 -19 44 -19 94 -19 2408 0 2301 0 2365 19 2408 23 53 57 89
114 120 l42 22 1680 0 c1610 0 1682 -1 1718 -18 55 -27 110 -86 125 -133 9
-30 12 -158 12 -460 l0 -420 23 -19 c12 -10 113 -98 225 -194 112 -97 207
-178 213 -180 7 -2 9 212 7 655 -4 729 -1 688 -72 840 -33 68 -102 162 -155
212 -87 79 -237 153 -351 171 -61 10 -3396 14 -3460 5z"/>
<path d="M3107 4511 c-78 -51 -87 -98 -87 -483 l0 -318 -711 0 c-511 0 -723
-3 -750 -12 -54 -16 -118 -73 -140 -126 -18 -41 -19 -76 -19 -557 0 -481 1
-516 19 -557 22 -53 86 -110 140 -126 27 -9 239 -12 750 -12 l711 0 0 -312 c0
-349 7 -401 62 -457 48 -49 133 -65 178 -34 20 14 302 255 320 273 3 3 86 75
185 160 99 85 194 166 210 181 17 14 68 59 115 100 47 41 117 101 155 134 91
78 113 97 215 186 47 41 117 101 155 134 38 33 83 72 100 86 137 120 216 188
243 211 18 15 32 30 32 33 0 3 -14 18 -32 33 -27 23 -106 91 -243 211 -17 14
-62 53 -100 86 -38 33 -108 93 -155 134 -102 89 -124 108 -215 186 -38 33
-108 93 -155 134 -47 41 -98 86 -115 100 -16 15 -111 96 -210 181 -99 85 -182
157 -185 160 -3 3 -39 34 -80 70 -41 36 -77 67 -80 70 -18 18 -139 119 -160
133 -34 23 -117 22 -153 -2z"/>
</g>
</svg>
