<?xml version="1.0" standalone="no"?>
<!DOCTYPE svg PUBLIC "-//W3C//DTD SVG 20010904//EN"
 "http://www.w3.org/TR/2001/REC-SVG-20010904/DTD/svg10.dtd">
<svg version="1.0" xmlns="http://www.w3.org/2000/svg"
 width="500.000000pt" height="500.000000pt" viewBox="0 0 500.000000 500.000000"
 preserveAspectRatio="xMidYMid meet">

<g transform="translate(0.000000,500.000000) scale(0.100000,-0.100000)"
fill="#000000" stroke="none">
<path d="M2245 4820 c-105 -10 -325 -57 -440 -93 -281 -88 -547 -230 -764
-406 -152 -124 -358 -344 -456 -487 -190 -279 -299 -536 -371 -879 -59 -277
-58 -639 1 -920 61 -289 161 -540 309 -774 68 -106 76 -117 160 -224 94 -120
316 -333 426 -410 333 -233 571 -337 955 -419 149 -31 153 -31 435 -31 282 0
286 0 435 31 384 82 622 186 955 419 125 87 372 330 455 447 11 16 30 41 42
56 48 58 157 241 211 350 306 628 311 1385 13 2012 -123 261 -275 472 -488
679 -196 191 -357 305 -598 424 -198 97 -325 139 -570 191 -149 32 -175 35
-390 39 -126 2 -270 0 -320 -5z m458 -929 c186 -47 348 -154 459 -304 66 -88
96 -146 134 -257 27 -80 29 -95 29 -245 0 -148 -2 -166 -27 -243 -51 -152
-106 -241 -214 -347 -79 -77 -106 -98 -174 -137 -113 -65 -277 -108 -410 -108
-87 0 -229 27 -305 59 -118 48 -221 117 -296 199 -97 105 -155 204 -200 342
-21 67 -24 93 -24 235 0 150 2 165 29 245 38 111 68 169 134 257 116 157 290
268 482 308 47 9 90 19 95 21 25 9 218 -7 288 -25z m-3 -1905 c245 -30 493
-122 680 -255 25 -17 61 -42 80 -55 99 -65 273 -253 368 -396 47 -71 132 -238
132 -258 0 -14 -114 -117 -195 -177 -281 -207 -531 -319 -875 -392 -118 -26
-141 -27 -390 -27 -249 0 -272 1 -390 27 -302 64 -522 155 -762 314 -122 81
-294 221 -304 248 -6 16 63 164 113 243 129 204 341 408 548 529 293 171 641
241 995 199z"/>
</g>
</svg>
