<?xml version="1.0" standalone="no"?>
<!DOCTYPE svg PUBLIC "-//W3C//DTD SVG 20010904//EN"
 "http://www.w3.org/TR/2001/REC-SVG-20010904/DTD/svg10.dtd">
<svg version="1.0" xmlns="http://www.w3.org/2000/svg"
 width="500.000000pt" height="500.000000pt" viewBox="0 0 500.000000 500.000000"
 preserveAspectRatio="xMidYMid meet">

<g transform="translate(0.000000,500.000000) scale(0.100000,-0.100000)"
fill="#00c3ff" stroke="none">
<path d="M427 4576 c-59 -16 -111 -64 -133 -123 -44 -116 37 -247 162 -261 33
-3 44 -9 44 -21 0 -10 -56 -408 -125 -887 -68 -478 -140 -988 -160 -1134 -19
-146 -76 -554 -127 -907 -103 -728 -102 -693 -23 -769 94 -91 235 -72 305 41
18 29 38 152 130 792 59 417 112 790 116 828 5 49 9 64 14 50 5 -11 18 -253
30 -538 12 -285 27 -535 32 -555 14 -51 83 -117 137 -132 81 -22 173 13 218
82 28 41 28 44 26 187 -1 127 -42 1076 -88 2061 -8 173 -19 428 -25 565 -5
138 -12 269 -15 293 l-5 42 415 0 415 0 0 -1061 0 -1061 23 6 c12 3 102 6 200
6 l177 0 0 1055 0 1055 330 0 330 0 0 -1055 0 -1055 178 0 c97 0 187 -3 200
-6 l22 -6 0 1061 0 1061 415 0 415 0 -5 -42 c-3 -24 -10 -155 -15 -293 -6
-137 -17 -392 -25 -565 -46 -985 -87 -1934 -88 -2061 -2 -143 -2 -146 26 -187
91 -139 310 -105 356 56 5 16 19 263 31 549 12 285 25 527 29 538 6 14 10 0
15 -45 15 -143 217 -1538 228 -1580 17 -64 80 -125 146 -139 71 -15 138 6 185
58 70 77 71 46 -31 764 -51 353 -108 761 -127 907 -20 146 -92 656 -160 1134
-69 479 -125 878 -125 888 0 11 7 18 20 18 55 0 137 56 167 115 22 41 21 122
-1 165 -26 49 -45 69 -91 94 l-40 21 -2040 2 c-1646 1 -2049 -1 -2088 -11z"/>
<path d="M1730 1918 c-74 -38 -85 -62 -88 -191 -2 -101 0 -116 20 -151 14 -24
40 -48 67 -63 l44 -23 731 0 c688 0 733 2 771 19 49 22 73 48 91 98 16 45 18
163 4 213 -11 41 -61 94 -103 109 -19 8 -269 11 -761 11 l-732 0 -44 -22z"/>
</g>
</svg>
