<?xml version="1.0" standalone="no"?>
<!DOCTYPE svg PUBLIC "-//W3C//DTD SVG 20010904//EN"
 "http://www.w3.org/TR/2001/REC-SVG-20010904/DTD/svg10.dtd">
<svg version="1.0" xmlns="http://www.w3.org/2000/svg"
 width="500.000000pt" height="500.000000pt" viewBox="0 0 500.000000 500.000000"
 preserveAspectRatio="xMidYMid meet">

<g transform="translate(0.000000,500.000000) scale(0.100000,-0.100000)"
fill="#00c3ff" stroke="none">
<path d="M1032 3884 c-62 -31 -106 -79 -141 -154 l-26 -55 0 -1175 0 -1175 26
-55 c35 -75 79 -123 141 -154 137 -68 301 -1 372 153 20 44 21 63 26 506 l5
460 1043 3 1042 2 0 -418 c0 -258 4 -441 11 -478 34 -185 194 -292 361 -242
56 17 132 88 165 156 l28 57 0 1185 0 1185 -28 57 c-33 68 -109 139 -165 156
-167 50 -327 -57 -361 -242 -7 -37 -11 -220 -11 -478 l0 -418 -1042 2 -1043 3
-5 460 c-5 443 -6 462 -26 506 -71 154 -235 221 -372 153z"/>
<path d="M415 3464 c-53 -19 -101 -68 -122 -123 -17 -43 -18 -106 -18 -841 0
-735 1 -798 18 -841 33 -87 116 -139 219 -139 87 0 158 44 201 125 l22 40 0
815 0 815 -22 40 c-58 109 -178 153 -298 109z"/>
<path d="M4370 3464 c-56 -24 -109 -82 -125 -138 -22 -74 -22 -1578 0 -1652
17 -57 70 -115 127 -139 81 -33 207 -6 265 56 55 60 53 32 53 909 0 877 2 849
-53 909 -58 62 -188 89 -267 55z"/>
<path d="M47 2919 c-43 -25 -47 -60 -47 -419 0 -271 3 -348 14 -375 26 -61 80
-72 127 -26 l29 29 0 372 0 372 -29 29 c-31 30 -63 36 -94 18z"/>
<path d="M4859 2901 l-29 -29 0 -372 0 -372 29 -29 c47 -46 101 -35 127 26 21
50 21 700 0 750 -26 61 -80 72 -127 26z"/>
</g>
</svg>
