<?xml version="1.0" standalone="no"?>
<!DOCTYPE svg PUBLIC "-//W3C//DTD SVG 20010904//EN"
 "http://www.w3.org/TR/2001/REC-SVG-20010904/DTD/svg10.dtd">
<svg version="1.0" xmlns="http://www.w3.org/2000/svg"
 width="500.000000pt" height="500.000000pt" viewBox="0 0 500.000000 500.000000"
 preserveAspectRatio="xMidYMid meet">

<g transform="translate(0.000000,500.000000) scale(0.100000,-0.100000)"
fill="#00c3ff" stroke="none">
<path d="M2310 4994 c-414 -38 -847 -184 -1160 -392 -128 -85 -311 -231 -403
-320 -87 -84 -258 -296 -347 -429 -175 -260 -314 -629 -372 -983 -31 -194 -31
-546 0 -740 58 -353 194 -715 370 -980 89 -133 260 -345 349 -432 92 -89 275
-235 403 -320 266 -176 626 -312 980 -370 194 -31 546 -31 740 0 354 58 714
194 980 370 128 85 311 231 403 320 89 87 260 299 349 432 176 265 312 627
370 980 31 194 31 546 0 740 -58 354 -197 723 -372 983 -85 127 -231 311 -318
400 -87 89 -299 260 -432 349 -265 176 -630 314 -975 368 -126 20 -455 34
-565 24z m489 -109 c155 -21 202 -31 212 -46 5 -8 36 -66 70 -129 34 -63 93
-171 130 -239 38 -68 68 -126 66 -127 -2 -2 -177 -73 -391 -157 l-387 -154
-122 48 c-382 150 -648 257 -653 261 -10 11 245 506 263 512 36 11 220 38 318
46 125 11 354 4 494 -15z m-1778 -1087 c0 -13 12 -203 27 -423 l28 -400 -65
-85 c-36 -47 -106 -134 -156 -195 -50 -60 -137 -170 -193 -242 -57 -73 -106
-133 -110 -133 -4 0 -103 94 -221 208 l-214 207 12 100 c28 237 112 520 218
732 36 74 71 137 77 141 8 5 504 98 589 111 4 0 7 -9 8 -21z m3371 -53 l158
-28 45 -83 c67 -124 133 -285 171 -418 39 -134 81 -351 86 -441 l3 -60 -204
-200 -205 -199 -37 44 c-66 79 -321 399 -406 509 l-83 107 25 390 c14 214 28
403 30 420 l5 31 128 -22 c70 -13 198 -35 284 -50z m-1791 -474 c53 -38 156
-110 230 -161 129 -89 449 -320 449 -323 0 -1 -67 -209 -148 -462 l-147 -460
-486 -3 -485 -2 -81 252 c-172 533 -217 678 -212 681 44 34 366 263 494 352
94 65 193 135 220 156 28 21 55 38 60 38 6 1 54 -30 106 -68z m-1424 -1841
c186 -49 367 -98 403 -108 l65 -19 93 -144 c51 -79 123 -193 159 -254 37 -60
96 -154 131 -208 36 -55 61 -102 56 -106 -18 -17 -492 -261 -506 -261 -38 0
-315 151 -453 248 -114 79 -166 122 -286 239 l-105 103 36 228 c54 331 61 372
66 372 2 0 156 -40 341 -90z m2988 70 c21 -66 102 -547 94 -561 -16 -31 -234
-232 -329 -303 -112 -85 -282 -189 -418 -256 l-96 -48 -259 129 -258 130 21
32 c11 18 55 87 98 155 42 67 135 214 205 325 l128 202 47 13 c26 7 205 55
397 106 193 52 353 95 357 95 4 1 9 -8 13 -19z"/>
</g>
</svg>
